<svg width="20" height="20" viewBox="0 0 20 20" fill="none" xmlns="http://www.w3.org/2000/svg">
<path d="M12.4999 4.1665C12.4999 6.00745 13.9923 7.49984 15.8333 7.49984M3.33325 16.6665L3.78655 14.4C3.92781 13.6937 3.99844 13.3406 4.1276 13.0113C4.24225 12.719 4.39091 12.4412 4.57051 12.1837C4.77286 11.8936 5.02751 11.6389 5.53681 11.1296L13.3334 3.33316C13.5678 3.09867 13.6851 2.98143 13.7973 2.89699C14.5095 2.36092 15.4905 2.36093 16.2028 2.89702C16.3149 2.98146 16.4322 3.09871 16.6667 3.33319V3.33319C16.9011 3.56767 17.0184 3.68492 17.1028 3.79711C17.6389 4.50933 17.6389 5.49033 17.1028 6.20255C17.0184 6.31474 16.9011 6.43198 16.6666 6.66645L8.87012 14.463C8.36083 14.9723 8.10618 15.2269 7.81605 15.4293C7.55853 15.6089 7.28076 15.7575 6.98848 15.8722C6.65919 16.0013 6.30605 16.0719 5.59978 16.2132L3.33325 16.6665Z" stroke="#1A2433" stroke-width="1.2" stroke-linecap="round" stroke-linejoin="round"/>
</svg>
