<svg width="14" height="14" viewBox="0 0 14 14" fill="none" xmlns="http://www.w3.org/2000/svg">
<path fill-rule="evenodd" clip-rule="evenodd" d="M0.729492 7.00033C0.729492 3.53704 3.53704 0.729492 7.00033 0.729492C10.4636 0.729492 13.2712 3.53704 13.2712 7.00033C13.2712 10.4636 10.4636 13.2712 7.00033 13.2712C3.53704 13.2712 0.729492 10.4636 0.729492 7.00033ZM9.86399 5.78066C10.1569 5.48776 10.1569 5.01289 9.86399 4.72C9.5711 4.4271 9.09622 4.4271 8.80333 4.72L6.41699 7.10633L5.78066 6.47C5.48776 6.1771 5.01289 6.1771 4.72 6.47C4.4271 6.76289 4.4271 7.23776 4.72 7.53066L5.88666 8.69732C6.02731 8.83797 6.21808 8.91699 6.41699 8.91699C6.6159 8.91699 6.80667 8.83797 6.94732 8.69732L9.86399 5.78066Z" fill="#586374"/>
</svg>
